# xmcd
#
# Track frame offsets: 
#        187
#        19107
#        28900
#        45795
#        63107
#        82487
#        102360
#        115170
#        133095
#        151517
#
# Disc length: 2273 seconds
#
# Revision: 2
# Processed by: cddbd v1.5.2PL0 Copyright (c) Steve Scherf et al.
# Submitted via: ExactAudioCopy v0.95b4
#
DISCID=7708df0a
DTITLE=Jethro Tull - Stand Up (Original Master Recording)
DYEAR=1900
DGENRE=
TTITLE0=A New Day Yesterday
TTITLE1=Jeffrey Goes to Leicester Square
TTITLE2=Bouree
TTITLE3=Back To The Family
TTITLE4=Look Into The Sun
TTITLE5=Nothing Is Easy
TTITLE6=Fat Man
TTITLE7=We Used To Know
TTITLE8=Reasons For Waiting
TTITLE9=For A Thousand Mothers
EXTD=
EXTT0=
EXTT1=
EXTT2=
EXTT3=
EXTT4=
EXTT5=
EXTT6=
EXTT7=
EXTT8=
EXTT9=
PLAYORDER=
